<mxfile host="Electron" modified="2023-05-21T14:28:23.412Z" agent="Mozilla/5.0 (Macintosh; Intel Mac OS X 10_15_7) AppleWebKit/537.36 (KHTML, like Gecko) draw.io/21.2.8 Chrome/112.0.5615.165 Electron/24.2.0 Safari/537.36" etag="031vm1GTHwYaDYxblUzB" version="21.2.8" type="device">
  <diagram id="C5RBs43oDa-KdzZeNtuy" name="Page-1">
    <mxGraphModel dx="2537" dy="1238" grid="1" gridSize="10" guides="1" tooltips="1" connect="1" arrows="1" fold="1" page="1" pageScale="1" pageWidth="827" pageHeight="1169" math="0" shadow="0">
      <root>
        <mxCell id="WIyWlLk6GJQsqaUBKTNV-0" />
        <mxCell id="WIyWlLk6GJQsqaUBKTNV-1" parent="WIyWlLk6GJQsqaUBKTNV-0" />
        <mxCell id="-nmSqiCbm2DeX_G0ToKZ-44" value="" style="rounded=1;whiteSpace=wrap;html=1;fontSize=12;glass=0;strokeWidth=1;shadow=0;fillColor=none;fontColor=#333333;strokeColor=#666666;align=left;movable=1;resizable=1;rotatable=1;deletable=1;editable=1;locked=0;connectable=1;" parent="WIyWlLk6GJQsqaUBKTNV-1" vertex="1">
          <mxGeometry x="-673" y="813" width="550.0000000000001" height="94" as="geometry" />
        </mxCell>
        <mxCell id="WIyWlLk6GJQsqaUBKTNV-2" value="" style="rounded=0;html=1;jettySize=auto;orthogonalLoop=1;fontSize=11;endArrow=block;endFill=0;endSize=8;strokeWidth=1;shadow=0;labelBackgroundColor=none;edgeStyle=orthogonalEdgeStyle;" parent="WIyWlLk6GJQsqaUBKTNV-1" source="WIyWlLk6GJQsqaUBKTNV-3" target="WIyWlLk6GJQsqaUBKTNV-6" edge="1">
          <mxGeometry relative="1" as="geometry" />
        </mxCell>
        <mxCell id="WIyWlLk6GJQsqaUBKTNV-3" value="todo" style="rounded=1;whiteSpace=wrap;html=1;fontSize=12;glass=0;strokeWidth=1;shadow=0;" parent="WIyWlLk6GJQsqaUBKTNV-1" vertex="1">
          <mxGeometry x="-32" y="80" width="120" height="40" as="geometry" />
        </mxCell>
        <mxCell id="WIyWlLk6GJQsqaUBKTNV-6" value="&lt;br&gt;Inter-&lt;br&gt;action continues&lt;br&gt;or finishes&lt;br&gt;now&lt;br&gt;?" style="rhombus;whiteSpace=wrap;html=1;shadow=0;fontFamily=Helvetica;fontSize=12;align=center;strokeWidth=1;spacing=6;spacingTop=-4;" parent="WIyWlLk6GJQsqaUBKTNV-1" vertex="1">
          <mxGeometry x="-240" y="170" width="127.5" height="102" as="geometry" />
        </mxCell>
        <mxCell id="WIyWlLk6GJQsqaUBKTNV-9" value="Yes" style="edgeStyle=orthogonalEdgeStyle;rounded=0;html=1;jettySize=auto;orthogonalLoop=1;fontSize=11;endArrow=block;endFill=0;endSize=8;strokeWidth=1;shadow=0;labelBackgroundColor=none;entryX=0.5;entryY=0;entryDx=0;entryDy=0;" parent="WIyWlLk6GJQsqaUBKTNV-1" source="WIyWlLk6GJQsqaUBKTNV-10" target="WIyWlLk6GJQsqaUBKTNV-12" edge="1">
          <mxGeometry x="-0.9068" y="10" relative="1" as="geometry">
            <mxPoint as="offset" />
          </mxGeometry>
        </mxCell>
        <mxCell id="WIyWlLk6GJQsqaUBKTNV-10" value="&lt;br&gt;Question is&lt;br&gt;graded?&lt;br&gt;" style="rhombus;whiteSpace=wrap;html=1;shadow=0;fontFamily=Helvetica;fontSize=12;align=center;strokeWidth=1;spacing=6;spacingTop=-4;" parent="WIyWlLk6GJQsqaUBKTNV-1" vertex="1">
          <mxGeometry x="-226.25" y="400" width="100" height="80" as="geometry" />
        </mxCell>
        <mxCell id="WIyWlLk6GJQsqaUBKTNV-12" value="finished" style="rounded=1;whiteSpace=wrap;html=1;fontSize=12;glass=0;strokeWidth=1;shadow=0;fillColor=#d5e8d4;strokeColor=#82b366;" parent="WIyWlLk6GJQsqaUBKTNV-1" vertex="1">
          <mxGeometry x="171.75" y="645" width="120" height="40" as="geometry" />
        </mxCell>
        <mxCell id="-nmSqiCbm2DeX_G0ToKZ-1" value="" style="shape=waypoint;sketch=0;fillStyle=solid;size=6;pointerEvents=1;points=[];fillColor=none;resizable=0;rotatable=0;perimeter=centerPerimeter;snapToPoint=1;strokeWidth=9;" parent="WIyWlLk6GJQsqaUBKTNV-1" vertex="1">
          <mxGeometry x="18" y="10" width="20" height="20" as="geometry" />
        </mxCell>
        <mxCell id="-nmSqiCbm2DeX_G0ToKZ-2" value="" style="edgeStyle=orthogonalEdgeStyle;rounded=0;html=1;jettySize=auto;orthogonalLoop=1;fontSize=11;endArrow=block;endFill=0;endSize=8;strokeWidth=1;shadow=0;labelBackgroundColor=none;exitX=0.45;exitY=0.95;exitDx=0;exitDy=0;exitPerimeter=0;" parent="WIyWlLk6GJQsqaUBKTNV-1" source="-nmSqiCbm2DeX_G0ToKZ-1" target="WIyWlLk6GJQsqaUBKTNV-3" edge="1">
          <mxGeometry y="10" relative="1" as="geometry">
            <mxPoint as="offset" />
            <mxPoint x="88" y="220" as="sourcePoint" />
            <mxPoint x="138" y="220" as="targetPoint" />
          </mxGeometry>
        </mxCell>
        <mxCell id="-nmSqiCbm2DeX_G0ToKZ-3" value="&lt;br&gt;Student has&lt;br&gt;completed all parts&lt;br&gt;of the question&lt;br&gt;?" style="rhombus;whiteSpace=wrap;html=1;shadow=0;fontFamily=Helvetica;fontSize=12;align=center;strokeWidth=1;spacing=6;spacingTop=-4;" parent="WIyWlLk6GJQsqaUBKTNV-1" vertex="1">
          <mxGeometry x="168" y="170" width="127.5" height="102" as="geometry" />
        </mxCell>
        <mxCell id="-nmSqiCbm2DeX_G0ToKZ-5" value="complete" style="rounded=1;whiteSpace=wrap;html=1;fontSize=12;glass=0;strokeWidth=1;shadow=0;fillColor=#f5f5f5;fontColor=#333333;strokeColor=#666666;" parent="WIyWlLk6GJQsqaUBKTNV-1" vertex="1">
          <mxGeometry x="-32" y="201" width="120" height="40" as="geometry" />
        </mxCell>
        <mxCell id="-nmSqiCbm2DeX_G0ToKZ-6" value="Yes" style="edgeStyle=orthogonalEdgeStyle;rounded=0;html=1;jettySize=auto;orthogonalLoop=1;fontSize=11;endArrow=block;endFill=0;endSize=8;strokeWidth=1;shadow=0;labelBackgroundColor=none;exitX=0;exitY=0.5;exitDx=0;exitDy=0;" parent="WIyWlLk6GJQsqaUBKTNV-1" source="-nmSqiCbm2DeX_G0ToKZ-3" target="-nmSqiCbm2DeX_G0ToKZ-5" edge="1">
          <mxGeometry x="-0.5" y="-11" relative="1" as="geometry">
            <mxPoint as="offset" />
            <mxPoint x="-32" y="221" as="sourcePoint" />
          </mxGeometry>
        </mxCell>
        <mxCell id="-nmSqiCbm2DeX_G0ToKZ-8" value="No" style="rounded=0;html=1;jettySize=auto;orthogonalLoop=1;fontSize=11;endArrow=block;endFill=0;endSize=8;strokeWidth=1;shadow=0;labelBackgroundColor=none;edgeStyle=orthogonalEdgeStyle;exitX=0.5;exitY=0;exitDx=0;exitDy=0;entryX=1;entryY=0.5;entryDx=0;entryDy=0;" parent="WIyWlLk6GJQsqaUBKTNV-1" source="-nmSqiCbm2DeX_G0ToKZ-3" target="WIyWlLk6GJQsqaUBKTNV-3" edge="1">
          <mxGeometry x="-0.7193" y="12" relative="1" as="geometry">
            <mxPoint as="offset" />
            <mxPoint x="38" y="380" as="sourcePoint" />
            <mxPoint x="38" y="440" as="targetPoint" />
          </mxGeometry>
        </mxCell>
        <mxCell id="-nmSqiCbm2DeX_G0ToKZ-9" value="" style="rounded=0;html=1;jettySize=auto;orthogonalLoop=1;fontSize=11;endArrow=block;endFill=0;endSize=8;strokeWidth=1;shadow=0;labelBackgroundColor=none;edgeStyle=orthogonalEdgeStyle;exitX=0;exitY=0.5;exitDx=0;exitDy=0;entryX=1;entryY=0.5;entryDx=0;entryDy=0;" parent="WIyWlLk6GJQsqaUBKTNV-1" source="-nmSqiCbm2DeX_G0ToKZ-5" target="WIyWlLk6GJQsqaUBKTNV-6" edge="1">
          <mxGeometry relative="1" as="geometry">
            <mxPoint x="-22" y="110" as="sourcePoint" />
            <mxPoint x="-98.20000000000005" y="180.03999999999996" as="targetPoint" />
          </mxGeometry>
        </mxCell>
        <mxCell id="-nmSqiCbm2DeX_G0ToKZ-10" value="No" style="rounded=0;html=1;jettySize=auto;orthogonalLoop=1;fontSize=11;endArrow=block;endFill=0;endSize=8;strokeWidth=1;shadow=0;labelBackgroundColor=none;edgeStyle=orthogonalEdgeStyle;exitX=0;exitY=0.5;exitDx=0;exitDy=0;entryX=0.5;entryY=0;entryDx=0;entryDy=0;" parent="WIyWlLk6GJQsqaUBKTNV-1" source="WIyWlLk6GJQsqaUBKTNV-6" target="-nmSqiCbm2DeX_G0ToKZ-12" edge="1">
          <mxGeometry x="-0.8863" y="-11" relative="1" as="geometry">
            <mxPoint as="offset" />
            <mxPoint x="-256" y="198" as="sourcePoint" />
            <mxPoint x="-406" y="268" as="targetPoint" />
          </mxGeometry>
        </mxCell>
        <mxCell id="-nmSqiCbm2DeX_G0ToKZ-12" value="&lt;br&gt;Enough info&lt;br&gt;for grading&lt;br&gt;?" style="rhombus;whiteSpace=wrap;html=1;shadow=0;fontFamily=Helvetica;fontSize=12;align=center;strokeWidth=1;spacing=6;spacingTop=-4;" parent="WIyWlLk6GJQsqaUBKTNV-1" vertex="1">
          <mxGeometry x="-442" y="400" width="100" height="80" as="geometry" />
        </mxCell>
        <mxCell id="-nmSqiCbm2DeX_G0ToKZ-13" value="Yes" style="rounded=0;html=1;jettySize=auto;orthogonalLoop=1;fontSize=11;endArrow=block;endFill=0;endSize=8;strokeWidth=1;shadow=0;labelBackgroundColor=none;edgeStyle=orthogonalEdgeStyle;exitX=0.5;exitY=1;exitDx=0;exitDy=0;entryX=0.5;entryY=1;entryDx=0;entryDy=0;" parent="WIyWlLk6GJQsqaUBKTNV-1" source="WIyWlLk6GJQsqaUBKTNV-6" target="-nmSqiCbm2DeX_G0ToKZ-3" edge="1">
          <mxGeometry x="-0.9338" y="-14" relative="1" as="geometry">
            <mxPoint as="offset" />
            <mxPoint x="-230" y="231" as="sourcePoint" />
            <mxPoint x="-382" y="290" as="targetPoint" />
            <Array as="points">
              <mxPoint x="-176" y="340" />
              <mxPoint x="232" y="340" />
            </Array>
          </mxGeometry>
        </mxCell>
        <mxCell id="-nmSqiCbm2DeX_G0ToKZ-14" value="Yes" style="edgeStyle=orthogonalEdgeStyle;rounded=0;html=1;jettySize=auto;orthogonalLoop=1;fontSize=11;endArrow=block;endFill=0;endSize=8;strokeWidth=1;shadow=0;labelBackgroundColor=none;exitX=1;exitY=0.5;exitDx=0;exitDy=0;entryX=0;entryY=0.5;entryDx=0;entryDy=0;" parent="WIyWlLk6GJQsqaUBKTNV-1" source="-nmSqiCbm2DeX_G0ToKZ-12" target="WIyWlLk6GJQsqaUBKTNV-10" edge="1">
          <mxGeometry x="-0.7927" y="10" relative="1" as="geometry">
            <mxPoint x="-1" as="offset" />
            <mxPoint x="178" y="231" as="sourcePoint" />
            <mxPoint x="98" y="231" as="targetPoint" />
          </mxGeometry>
        </mxCell>
        <mxCell id="-nmSqiCbm2DeX_G0ToKZ-16" value="Needs&lt;br&gt;manual&lt;br&gt;grading?" style="rhombus;whiteSpace=wrap;html=1;shadow=0;fontFamily=Helvetica;fontSize=12;align=center;strokeWidth=1;spacing=6;spacingTop=-4;" parent="WIyWlLk6GJQsqaUBKTNV-1" vertex="1">
          <mxGeometry x="-226.25" y="520" width="100" height="80" as="geometry" />
        </mxCell>
        <mxCell id="-nmSqiCbm2DeX_G0ToKZ-17" value="No" style="rounded=0;html=1;jettySize=auto;orthogonalLoop=1;fontSize=11;endArrow=block;endFill=0;endSize=8;strokeWidth=1;shadow=0;labelBackgroundColor=none;edgeStyle=orthogonalEdgeStyle;exitX=0.5;exitY=1;exitDx=0;exitDy=0;entryX=0.5;entryY=0;entryDx=0;entryDy=0;" parent="WIyWlLk6GJQsqaUBKTNV-1" source="WIyWlLk6GJQsqaUBKTNV-10" target="-nmSqiCbm2DeX_G0ToKZ-16" edge="1">
          <mxGeometry x="-0.5" y="-14" relative="1" as="geometry">
            <mxPoint as="offset" />
            <mxPoint x="-230" y="231" as="sourcePoint" />
            <mxPoint x="-382" y="410" as="targetPoint" />
          </mxGeometry>
        </mxCell>
        <mxCell id="-nmSqiCbm2DeX_G0ToKZ-18" value="Yes" style="edgeStyle=orthogonalEdgeStyle;rounded=0;html=1;jettySize=auto;orthogonalLoop=1;fontSize=11;endArrow=block;endFill=0;endSize=8;strokeWidth=1;shadow=0;labelBackgroundColor=none;entryX=0.5;entryY=0;entryDx=0;entryDy=0;exitX=1;exitY=0.5;exitDx=0;exitDy=0;" parent="WIyWlLk6GJQsqaUBKTNV-1" source="-nmSqiCbm2DeX_G0ToKZ-16" target="-nmSqiCbm2DeX_G0ToKZ-20" edge="1">
          <mxGeometry x="-0.7451" y="10" relative="1" as="geometry">
            <mxPoint as="offset" />
            <mxPoint x="-255.75" y="640" as="sourcePoint" />
            <mxPoint x="8" y="620" as="targetPoint" />
          </mxGeometry>
        </mxCell>
        <mxCell id="-nmSqiCbm2DeX_G0ToKZ-20" value="needsgrading" style="rounded=1;whiteSpace=wrap;html=1;fontSize=12;glass=0;strokeWidth=1;shadow=0;fillColor=#f5f5f5;fontColor=#333333;strokeColor=#666666;" parent="WIyWlLk6GJQsqaUBKTNV-1" vertex="1">
          <mxGeometry x="-52" y="645" width="120" height="40" as="geometry" />
        </mxCell>
        <mxCell id="-nmSqiCbm2DeX_G0ToKZ-24" value="No" style="edgeStyle=orthogonalEdgeStyle;rounded=0;html=1;jettySize=auto;orthogonalLoop=1;fontSize=11;endArrow=block;endFill=0;endSize=8;strokeWidth=1;shadow=0;labelBackgroundColor=none;entryX=0.5;entryY=0;entryDx=0;entryDy=0;exitX=0;exitY=0.5;exitDx=0;exitDy=0;" parent="WIyWlLk6GJQsqaUBKTNV-1" source="-nmSqiCbm2DeX_G0ToKZ-16" target="-nmSqiCbm2DeX_G0ToKZ-23" edge="1">
          <mxGeometry x="-0.7526" y="-10" relative="1" as="geometry">
            <mxPoint as="offset" />
            <mxPoint x="-232" y="560" as="sourcePoint" />
            <mxPoint x="-337.75" y="620" as="targetPoint" />
          </mxGeometry>
        </mxCell>
        <mxCell id="-nmSqiCbm2DeX_G0ToKZ-40" value="gaveup" style="rounded=1;whiteSpace=wrap;html=1;fontSize=12;glass=0;strokeWidth=1;shadow=0;fillColor=#f8cecc;strokeColor=#b85450;" parent="WIyWlLk6GJQsqaUBKTNV-1" vertex="1">
          <mxGeometry x="-804" y="650" width="120" height="40" as="geometry" />
        </mxCell>
        <mxCell id="-nmSqiCbm2DeX_G0ToKZ-47" value="mangrright" style="rounded=1;whiteSpace=wrap;html=1;fontSize=12;glass=0;strokeWidth=1;shadow=0;fillColor=#d5e8d4;strokeColor=#82b366;" parent="WIyWlLk6GJQsqaUBKTNV-1" vertex="1">
          <mxGeometry x="-271" y="843" width="135" height="40" as="geometry" />
        </mxCell>
        <mxCell id="-nmSqiCbm2DeX_G0ToKZ-48" value="mangrpartial" style="rounded=1;whiteSpace=wrap;html=1;fontSize=12;glass=0;strokeWidth=1;shadow=0;fillColor=#fff2cc;strokeColor=#d6b656;" parent="WIyWlLk6GJQsqaUBKTNV-1" vertex="1">
          <mxGeometry x="-483" y="843" width="177" height="40" as="geometry" />
        </mxCell>
        <mxCell id="-nmSqiCbm2DeX_G0ToKZ-49" value="mangrwrong" style="rounded=1;whiteSpace=wrap;html=1;fontSize=12;glass=0;strokeWidth=1;shadow=0;fillColor=#f8cecc;strokeColor=#b85450;" parent="WIyWlLk6GJQsqaUBKTNV-1" vertex="1">
          <mxGeometry x="-656" y="843" width="139" height="40" as="geometry" />
        </mxCell>
        <mxCell id="-nmSqiCbm2DeX_G0ToKZ-51" value="" style="edgeStyle=orthogonalEdgeStyle;rounded=0;html=1;jettySize=auto;orthogonalLoop=1;fontSize=11;endArrow=block;endFill=0;endSize=8;strokeWidth=1;shadow=0;labelBackgroundColor=none;exitX=0.5;exitY=1;exitDx=0;exitDy=0;entryX=0.42;entryY=-0.005;entryDx=0;entryDy=0;entryPerimeter=0;dashed=1;" parent="WIyWlLk6GJQsqaUBKTNV-1" source="-nmSqiCbm2DeX_G0ToKZ-23" target="-nmSqiCbm2DeX_G0ToKZ-44" edge="1">
          <mxGeometry x="-0.7526" y="-10" relative="1" as="geometry">
            <mxPoint as="offset" />
            <mxPoint x="-216.25" y="570" as="sourcePoint" />
            <mxPoint x="-440" y="810" as="targetPoint" />
            <Array as="points" />
          </mxGeometry>
        </mxCell>
        <mxCell id="6lLFz7f_ajhi3eGWXUxJ-0" value="In case of manual override" style="edgeLabel;html=1;align=right;verticalAlign=bottom;resizable=0;points=[];labelPosition=left;verticalLabelPosition=top;horizontal=1;" vertex="1" connectable="0" parent="-nmSqiCbm2DeX_G0ToKZ-51">
          <mxGeometry x="-0.0288" y="3" relative="1" as="geometry">
            <mxPoint x="-11" y="-21" as="offset" />
          </mxGeometry>
        </mxCell>
        <mxCell id="-nmSqiCbm2DeX_G0ToKZ-52" value="" style="edgeStyle=orthogonalEdgeStyle;rounded=0;html=1;jettySize=auto;orthogonalLoop=1;fontSize=11;endArrow=block;endFill=0;endSize=8;strokeWidth=1;shadow=0;labelBackgroundColor=none;exitX=0.5;exitY=1;exitDx=0;exitDy=0;entryX=0.5;entryY=0;entryDx=0;entryDy=0;" parent="WIyWlLk6GJQsqaUBKTNV-1" source="-nmSqiCbm2DeX_G0ToKZ-20" target="-nmSqiCbm2DeX_G0ToKZ-44" edge="1">
          <mxGeometry x="-0.7451" y="10" relative="1" as="geometry">
            <mxPoint as="offset" />
            <mxPoint x="-116.25" y="570" as="sourcePoint" />
            <mxPoint x="-402" y="810" as="targetPoint" />
            <Array as="points">
              <mxPoint x="8" y="750" />
              <mxPoint x="-398" y="750" />
            </Array>
          </mxGeometry>
        </mxCell>
        <mxCell id="-nmSqiCbm2DeX_G0ToKZ-30" value="" style="group" parent="WIyWlLk6GJQsqaUBKTNV-1" vertex="1" connectable="0">
          <mxGeometry x="-672" y="618" width="500" height="94" as="geometry" />
        </mxCell>
        <mxCell id="-nmSqiCbm2DeX_G0ToKZ-23" value="" style="rounded=1;whiteSpace=wrap;html=1;fontSize=12;glass=0;strokeWidth=1;shadow=0;fillColor=none;fontColor=#333333;strokeColor=#666666;align=left;" parent="-nmSqiCbm2DeX_G0ToKZ-30" vertex="1">
          <mxGeometry width="460" height="94" as="geometry" />
        </mxCell>
        <mxCell id="-nmSqiCbm2DeX_G0ToKZ-28" value="Graded" style="text;html=1;strokeColor=none;fillColor=none;align=center;verticalAlign=middle;whiteSpace=wrap;rounded=0;" parent="-nmSqiCbm2DeX_G0ToKZ-30" vertex="1">
          <mxGeometry x="9.082403562315505" width="60.54935708210337" height="30" as="geometry" />
        </mxCell>
        <mxCell id="-nmSqiCbm2DeX_G0ToKZ-31" value="" style="group" parent="WIyWlLk6GJQsqaUBKTNV-1" vertex="1" connectable="0">
          <mxGeometry x="-652.8260369240006" y="648" width="419.80887576925005" height="40" as="geometry" />
        </mxCell>
        <mxCell id="-nmSqiCbm2DeX_G0ToKZ-25" value="gradedright" style="rounded=1;whiteSpace=wrap;html=1;fontSize=12;glass=0;strokeWidth=1;shadow=0;fillColor=#d5e8d4;strokeColor=#82b366;" parent="-nmSqiCbm2DeX_G0ToKZ-31" vertex="1">
          <mxGeometry x="298.7101616050433" width="121.09871416420674" height="40" as="geometry" />
        </mxCell>
        <mxCell id="-nmSqiCbm2DeX_G0ToKZ-26" value="gradedpartial" style="rounded=1;whiteSpace=wrap;html=1;fontSize=12;glass=0;strokeWidth=1;shadow=0;fillColor=#fff2cc;strokeColor=#d6b656;" parent="-nmSqiCbm2DeX_G0ToKZ-31" vertex="1">
          <mxGeometry x="139.26352128883772" width="141.28183319157452" height="40" as="geometry" />
        </mxCell>
        <mxCell id="-nmSqiCbm2DeX_G0ToKZ-27" value="gradedwrong" style="rounded=1;whiteSpace=wrap;html=1;fontSize=12;glass=0;strokeWidth=1;shadow=0;fillColor=#f8cecc;strokeColor=#b85450;" parent="-nmSqiCbm2DeX_G0ToKZ-31" vertex="1">
          <mxGeometry width="121.09871416420674" height="40" as="geometry" />
        </mxCell>
        <mxCell id="-nmSqiCbm2DeX_G0ToKZ-55" value="No" style="edgeStyle=orthogonalEdgeStyle;rounded=0;html=1;jettySize=auto;orthogonalLoop=1;fontSize=11;endArrow=block;endFill=0;endSize=8;strokeWidth=1;shadow=0;labelBackgroundColor=none;entryX=0.5;entryY=0;entryDx=0;entryDy=0;exitX=0;exitY=0.5;exitDx=0;exitDy=0;" parent="WIyWlLk6GJQsqaUBKTNV-1" source="-nmSqiCbm2DeX_G0ToKZ-12" target="-nmSqiCbm2DeX_G0ToKZ-40" edge="1">
          <mxGeometry x="-0.9297" y="-10" relative="1" as="geometry">
            <mxPoint x="-1" as="offset" />
            <mxPoint x="-216.25" y="569.9999999999998" as="sourcePoint" />
            <mxPoint x="-432" y="628" as="targetPoint" />
          </mxGeometry>
        </mxCell>
        <mxCell id="-nmSqiCbm2DeX_G0ToKZ-45" value="Manually graded" style="text;html=1;strokeColor=none;fillColor=none;align=center;verticalAlign=middle;whiteSpace=wrap;rounded=0;" parent="WIyWlLk6GJQsqaUBKTNV-1" vertex="1">
          <mxGeometry x="-660" y="813" width="98.1" height="30" as="geometry" />
        </mxCell>
      </root>
    </mxGraphModel>
  </diagram>
</mxfile>
